<?xml version="1.0" encoding="utf-8"?>
<!-- Generator: Adobe Illustrator 19.1.0, SVG Export Plug-In . SVG Version: 6.00 Build 0)  -->
<!DOCTYPE svg PUBLIC "-//W3C//DTD SVG 1.1//EN" "http://www.w3.org/Graphics/SVG/1.1/DTD/svg11.dtd">
<svg version="1.1" id="Layer_1" xmlns="http://www.w3.org/2000/svg" xmlns:xlink="http://www.w3.org/1999/xlink" x="0px" y="0px"
	 viewBox="42 105.5 1043.2 351.5" style="enable-background:new 42 105.5 1043.2 351.5;" xml:space="preserve">
<style type="text/css">
	.st0{fill:#EF8822;}
</style>
<g>
	<polygon points="720.8,456.3 720.8,433 761.7,433 761.7,128.9 720.8,128.9 720.8,106.3 789.3,106.3 789.3,456.3 	"/>
	<polygon points="42.1,456.3 42,106.4 110.7,106.4 110.8,129.4 69.8,129.4 69.8,433.6 110.8,433.6 110.8,456.3 	"/>
	<path d="M300.1,338c5-3,10-5.9,15-9c42.9-26.9,84.7-58.3,84.7-120.5c0-61.2-44.6-102.3-110.9-102.3c-34.3,0-63.1,11.3-83.5,32.7
		c-21.4,22.5-32.2,55.3-30.3,92.4l0.2,3.8H224l-0.1-4.1c-0.9-25.5,7-49.4,21-63.9c10.8-11.2,24.8-16.9,41.6-16.9
		c36,0,62.1,24.3,62.1,57.7c0,43.7-24.7,63.3-85.4,100.8c-51.3,31.8-91.1,62.5-97.8,142.8l-0.4,4.3h231.5v-44.1H222.1
		C231,379,264.6,359.1,300.1,338z"/>
	<path d="M616.5,331.9V106.3h-47.7l-148,214.9l-0.7,10v44.7H570v80h46.5v-80h46.2v-44H616.5z M466.7,331.9l103.3-152v152H466.7z"/>
	<path class="st0" d="M852,106.4v47.3h177.4C952.3,238.4,904.2,346.6,897.1,452l-0.3,4.3h54.8l0.2-3.8
		C958,346.6,1013.6,219,1084,149l1.2-1.2v-41.5H852V106.4L852,106.4z"/>
</g>
</svg>
