<?xml version="1.0" encoding="utf-8"?>
<!-- Generator: Adobe Illustrator 19.1.0, SVG Export Plug-In . SVG Version: 6.00 Build 0)  -->
<svg version="1.0" id="Layer_1" xmlns="http://www.w3.org/2000/svg" xmlns:xlink="http://www.w3.org/1999/xlink" x="0px" y="0px"
	 viewBox="27.2 450.8 1043.2 351.5" style="enable-background:new 27.2 450.8 1043.2 351.5;" xml:space="preserve">
<style type="text/css">
	.st0{fill:#00000;}
	.st1{fill:#EF8822;}
</style>
<g>
	<polygon class="st0" points="706,802.3 706,779 746.9,779 746.9,474.9 706,474.9 706,452.3 774.5,452.3 774.5,802.3 	"/>
	<polygon class="st0" points="27.3,802.3 27.2,452.4 95.9,452.4 96,475.4 55,475.4 55,779.6 96,779.6 96,802.3 	"/>
	<path class="st0" d="M285.3,684c5-3,10-5.9,15-9c42.9-26.9,84.7-58.3,84.7-120.5c0-61.2-44.6-102.3-110.9-102.3
		c-34.3,0-63.1,11.3-83.5,32.7c-21.4,22.5-32.2,55.3-30.3,92.4l0.2,3.8h48.7l-0.1-4.1c-0.9-25.5,7-49.4,21-63.9
		c10.8-11.2,24.8-16.9,41.6-16.9c36,0,62.1,24.3,62.1,57.7c0,43.7-24.7,63.3-85.4,100.8c-51.3,31.8-91.1,62.5-97.8,142.8l-0.4,4.3
		h231.5v-44.1H207.3C216.2,725,249.8,705.1,285.3,684z"/>
	<path class="st0" d="M601.7,677.9V452.3H554L406,667.2l-0.7,10v44.7h149.9v80h46.5v-80h46.2v-44H601.7z M451.9,677.9l103.3-152v152
		H451.9z"/>
	<path class="st1" d="M837.2,452.4v47.3h177.4C937.5,584.4,889.4,692.6,882.3,798l-0.3,4.3h54.8l0.2-3.8
		c6.2-105.9,61.8-233.5,132.2-303.5l1.2-1.2v-41.5H837.2L837.2,452.4L837.2,452.4z"/>
</g>
</svg>
