<?xml version="1.0" encoding="utf-8"?>
<!-- Generator: Adobe Illustrator 19.1.0, SVG Export Plug-In . SVG Version: 6.00 Build 0)  -->
<svg version="1.0" id="Layer_1" xmlns="http://www.w3.org/2000/svg" xmlns:xlink="http://www.w3.org/1999/xlink" x="0px" y="0px"
	 viewBox="221.2 306.3 1043.2 350.1" style="enable-background:new 221.2 306.3 1043.2 350.1;" xml:space="preserve">
<style type="text/css">
	.st0{fill:#FFFFFF;}
</style>
<g>
	<polygon class="st0" points="900,656.4 900,633.1 940.9,633.1 940.9,329 900,329 900,306.4 968.5,306.4 968.5,656.4 	"/>
	<polygon class="st0" points="221.3,656.4 221.2,306.5 289.9,306.5 290,329.5 249,329.5 249,633.7 290,633.7 290,656.4 	"/>
	<path class="st0" d="M479.3,538.1c5-3,10-5.9,15-9c42.9-26.9,84.7-58.3,84.7-120.5c0-61.2-44.6-102.3-110.9-102.3
		c-34.3,0-63.1,11.3-83.5,32.7c-21.4,22.5-32.2,55.3-30.3,92.4l0.2,3.8h48.7l-0.1-4.1c-0.9-25.5,7-49.4,21-63.9
		c10.8-11.2,24.8-16.9,41.6-16.9c36,0,62.1,24.3,62.1,57.7c0,43.7-24.7,63.3-85.4,100.8c-51.3,31.8-91.1,62.5-97.8,142.8l-0.4,4.3
		h231.5v-44.1H401.3C410.2,579.1,443.8,559.2,479.3,538.1z"/>
	<path class="st0" d="M795.7,532V306.4H748L600,521.3l-0.7,10V576h149.9v80h46.5v-80h46.2v-44H795.7z M645.9,532l103.3-152v152
		H645.9z"/>
	<path class="st0" d="M1031.2,306.5v47.3h177.4c-77.1,84.7-125.2,192.9-132.3,298.3l-0.3,4.3h54.8l0.2-3.8
		c6.2-105.9,61.8-233.5,132.2-303.5l1.2-1.2v-41.5h-233.2V306.5z"/>
</g>
</svg>
